<svg width="22" height="22" viewBox="0 0 22 22" fill="none" xmlns="http://www.w3.org/2000/svg">
<path fill-rule="evenodd" clip-rule="evenodd" d="M3.06359 0.25L6.81451 0.25C7.12689 0.25 7.40655 0.443609 7.51651 0.735986L8.97195 4.60588C9.02012 4.73398 9.03233 4.87281 9.00725 5.00735L8.27796 8.91931C9.17433 11.0273 10.6549 12.4439 13.1106 13.7146L16.9756 12.9657C17.1128 12.9391 17.2547 12.9514 17.3853 13.0012L21.2671 14.4804C21.5578 14.5912 21.75 14.87 21.75 15.1812L21.75 18.7655C21.75 20.391 20.3178 21.7101 18.6425 21.3456C15.5889 20.6811 9.93167 18.9923 5.96967 15.0303C2.17453 11.2352 0.902985 5.99252 0.47495 3.15869C0.230716 1.54172 1.52752 0.25 3.06359 0.25ZM6.2953 1.75L3.06359 1.75C2.34457 1.75 1.86556 2.32183 1.95813 2.93467C2.3709 5.66748 3.57852 10.5179 7.03033 13.9697C10.6787 17.6181 15.9825 19.2317 18.9615 19.8799C19.6158 20.0222 20.25 19.524 20.25 18.7655L20.25 15.698L17.051 14.479L13.1427 15.2363C12.9801 15.2678 12.8116 15.2446 12.6636 15.1703C9.76931 13.7176 7.89037 11.9954 6.80364 9.27854C6.75085 9.14656 6.73665 9.00229 6.7627 8.86255L7.49431 4.9381L6.2953 1.75Z" fill="#33836E"/>
</svg>
