<svg width="14" height="18" viewBox="0 0 14 18" fill="none" xmlns="http://www.w3.org/2000/svg">
<path fill-rule="evenodd" clip-rule="evenodd" d="M3.19135 2.06177C3.9304 1.03532 5.15556 0.25 7 0.25C8.84444 0.25 10.0696 1.03532 10.8087 2.06177C11.5202 3.04998 11.75 4.21332 11.75 5V8.25H12.4C13.1456 8.25 13.75 8.85442 13.75 9.6V16.4C13.75 17.1456 13.1456 17.75 12.4 17.75H1.6C0.854416 17.75 0.25 17.1456 0.25 16.4V9.6C0.25 8.85442 0.854416 8.25 1.6 8.25H2.25V5C2.25 4.21332 2.47984 3.04998 3.19135 2.06177ZM3.75 8.25H10.25V5C10.25 4.45335 10.0798 3.61668 9.59135 2.93823C9.1304 2.29802 8.35556 1.75 7 1.75C5.64444 1.75 4.8696 2.29802 4.40865 2.93823C3.92016 3.61668 3.75 4.45335 3.75 5V8.25ZM1.75 9.75V16.25H12.25V9.75H1.75Z" fill="#33836E"/>
</svg>
