<svg width="16" height="20" viewBox="0 0 16 20" fill="none" xmlns="http://www.w3.org/2000/svg">
<path fill-rule="evenodd" clip-rule="evenodd" d="M0.331667 12.3403C0.459675 12.5917 0.71791 12.75 1 12.75H6.25V19C6.25 19.3248 6.45914 19.6128 6.76807 19.7132C7.077 19.8137 7.41549 19.7038 7.60656 19.4411L15.6066 8.44112C15.7725 8.21298 15.7963 7.91103 15.6683 7.65966C15.5403 7.40828 15.2821 7.24999 15 7.24999H9.75V0.99999C9.75 0.675136 9.54087 0.387212 9.23194 0.286753C8.92301 0.186294 8.58452 0.29614 8.39345 0.558861L0.393451 11.5589C0.227532 11.787 0.203659 12.0889 0.331667 12.3403ZM8.25 3.30638V7.99999C8.25 8.4142 8.58579 8.74999 9 8.74999H13.5272L7.75 16.6936V12C7.75 11.5858 7.41422 11.25 7 11.25H2.47283L8.25 3.30638Z" fill="#33836E"/>
</svg>
